<svg width="180" height="300" viewBox="0 0 180 300" fill="none" xmlns="http://www.w3.org/2000/svg">
<circle cx="10" cy="10" r="10" fill="#2F4F8C"/>
<circle cx="50" cy="10" r="10" fill="#2F4F8C"/>
<circle cx="90" cy="10" r="10" fill="#2F4F8C"/>
<circle cx="130" cy="10" r="10" fill="#2F4F8C"/>
<circle cx="170" cy="10" r="10" fill="#2F4F8C"/>
<circle cx="10" cy="50" r="10" fill="#2F4F8C"/>
<circle cx="50" cy="50" r="10" fill="#2F4F8C"/>
<circle cx="90" cy="50" r="10" fill="#2F4F8C"/>
<circle cx="130" cy="50" r="10" fill="#2F4F8C"/>
<circle cx="170" cy="50" r="10" fill="#2F4F8C"/>
<circle cx="10" cy="90" r="10" fill="#2F4F8C"/>
<circle cx="50" cy="90" r="10" fill="#2F4F8C"/>
<circle cx="90" cy="90" r="10" fill="#2F4F8C"/>
<circle cx="130" cy="90" r="10" fill="#2F4F8C"/>
<circle cx="170" cy="90" r="10" fill="#2F4F8C"/>
<circle cx="10" cy="130" r="10" fill="#2F4F8C"/>
<circle cx="50" cy="130" r="10" fill="#2F4F8C"/>
<circle cx="90" cy="130" r="10" fill="#2F4F8C"/>
<circle cx="130" cy="130" r="10" fill="#2F4F8C"/>
<circle cx="170" cy="130" r="10" fill="#2F4F8C"/>
<circle cx="10" cy="170" r="10" fill="#2F4F8C"/>
<circle cx="50" cy="170" r="10" fill="#2F4F8C"/>
<circle cx="90" cy="170" r="10" fill="#2F4F8C"/>
<circle cx="130" cy="170" r="10" fill="#2F4F8C"/>
<circle cx="170" cy="170" r="10" fill="#2F4F8C"/>
<circle cx="10" cy="210" r="10" fill="#2F4F8C"/>
<circle cx="50" cy="210" r="10" fill="#2F4F8C"/>
<circle cx="90" cy="210" r="10" fill="#2F4F8C"/>
<circle cx="130" cy="210" r="10" fill="#2F4F8C"/>
<circle cx="170" cy="210" r="10" fill="#2F4F8C"/>
<circle cx="10" cy="250" r="10" fill="#2F4F8C"/>
<circle cx="50" cy="250" r="10" fill="#2F4F8C"/>
<circle cx="90" cy="250" r="10" fill="#2F4F8C"/>
<circle cx="130" cy="250" r="10" fill="#2F4F8C"/>
<circle cx="170" cy="250" r="10" fill="#2F4F8C"/>
<circle cx="10" cy="290" r="10" fill="#2F4F8C"/>
<circle cx="50" cy="290" r="10" fill="#2F4F8C"/>
<circle cx="90" cy="290" r="10" fill="#2F4F8C"/>
<circle cx="130" cy="290" r="10" fill="#2F4F8C"/>
<circle cx="170" cy="290" r="10" fill="#2F4F8C"/>
</svg>
