<svg width="410" height="357" viewBox="0 0 410 357" fill="none" xmlns="http://www.w3.org/2000/svg">
<g clip-path="url(#clip0_40_2)">
<path d="M265.2 180.7H144.4V163.1C144.4 129.8 171.4 102.7 204.8 102.7C238.2 102.7 265.2 129.7 265.2 163.1V180.7Z" fill="#8D57E6"/>
<path d="M265.2 191.7H144.4C138.3 191.7 133.3 186.7 133.3 180.6V163C132.8 123.5 164.4 91.1999 203.9 90.6999C243.4 90.1999 275.7 121.8 276.2 161.3V180.6C276.2 186.8 271.3 191.7 265.2 191.7ZM155.5 169.6H254.1V163.1C254.5 135.9 232.7 113.5 205.5 113.1C178.3 112.7 155.9 134.5 155.5 161.7V169.6Z" fill="black"/>
<path d="M250.4 56.7001C250.4 81.9001 230 102.3 204.8 102.3C179.6 102.3 159.2 81.9001 159.2 56.7001C159.2 31.5001 179.6 11.1001 204.8 11.1001C230 11.1001 250.4 31.5001 250.4 56.7001Z" fill="#8D57E6"/>
<path d="M204.8 113.3C173.5 113.3 148.1 87.8999 148.1 56.5999C148.1 25.2999 173.5 -0.100098 204.8 -0.100098C236.1 -0.100098 261.5 25.2999 261.5 56.5999C261.4 87.8999 236.1 113.3 204.8 113.3ZM204.8 22.0999C185.7 22.0999 170.3 37.4999 170.3 56.5999C170.3 75.6999 185.7 91.0999 204.8 91.0999C223.9 91.0999 239.3 75.6999 239.3 56.5999C239.3 37.5999 223.8 22.1999 204.8 22.0999ZM398.5 356.2H296.8C290.7 356.2 285.7 351.2 285.7 345.1V330.3C285.7 296.1 313.5 268.3 347.7 268.3C353.8 268.1 358.9 272.9 359.1 279C359.3 285.1 354.5 290.2 348.4 290.4H347.7C325.7 290.4 307.9 308.2 307.9 330.2V334H387.5V330.3C387.5 327.1 387.1 323.8 386.3 320.7C384.9 314.7 388.6 308.8 394.6 307.4C400.4 306 406.3 309.6 407.8 315.4C409 320.3 409.6 325.3 409.6 330.3V345.1C409.6 351.2 404.7 356.2 398.5 356.2Z" fill="black"/>
<path d="M347.6 290.5C320.3 290.5 298.1 268.3 298.1 241C298.1 213.7 320.3 191.5 347.6 191.5C374.9 191.5 397.1 213.7 397.1 241C397.1 268.3 374.9 290.5 347.6 290.5ZM347.6 213.6C332.5 213.6 320.3 225.9 320.3 241C320.3 256.1 332.6 268.3 347.7 268.3C362.8 268.3 375 256 375 241C375 225.9 362.7 213.7 347.6 213.6ZM112.8 356.2H11.1C5 356.2 0 351.2 0 345.1V330.3C0 296.1 27.8 268.3 62 268.3C68.1 268.5 72.9 273.6 72.7 279.7C72.5 285.6 67.8 290.3 62 290.4C40 290.4 22.2 308.2 22.2 330.2V334H101.8V330.3C101.8 327.1 101.4 323.8 100.6 320.7C99.1 314.8 102.8 308.8 108.7 307.3C114.6 305.8 120.6 309.5 122.1 315.4C123.3 320.3 123.9 325.3 123.9 330.3V345.1C124 351.2 119 356.2 112.8 356.2C112.9 356.2 112.9 356.2 112.8 356.2Z" fill="black"/>
<path d="M61.9 290.5C34.6 290.5 12.4 268.3 12.4 241C12.4 213.7 34.6 191.5 61.9 191.5C89.2 191.5 111.4 213.7 111.4 241C111.4 268.3 89.3 290.5 61.9 290.5ZM61.9 213.6C46.8 213.6 34.6 225.8 34.6 241C34.6 256.1 46.8 268.4 62 268.4C77.1 268.4 89.3 256.2 89.3 241.1C89.3 225.9 77 213.7 61.9 213.6ZM204.8 285.7C198.7 285.7 193.7 280.7 193.7 274.6V218.2C193.5 212.1 198.3 207 204.4 206.8C210.5 206.6 215.6 211.4 215.8 217.5V274.6C215.9 280.8 210.9 285.7 204.8 285.7Z" fill="black"/>
<path d="M279.5 285.7H130.1C124 285.9 118.9 281.1 118.7 275C118.5 268.9 123.3 263.8 129.4 263.6H279.6C285.7 263.4 290.8 268.2 291 274.3C291.2 280.4 286.4 285.5 280.3 285.7H279.5Z" fill="black"/>
</g>
<defs>
<clipPath id="clip0_40_2">
<rect width="409.6" height="356.2" fill="white"/>
</clipPath>
</defs>
</svg>
