<svg width="718" height="211" viewBox="0 0 718 211" fill="none" xmlns="http://www.w3.org/2000/svg">
<path d="M229.103 92.5699L217.533 174.93C217.333 176.32 216.143 177.36 214.733 177.36H195.723C194.213 177.36 192.963 176.17 192.903 174.66C192.803 172.37 190.213 171.2 188.363 172.55C182.433 176.84 174.583 179.03 166.273 179.03C146.533 179.03 135.093 165.93 138.233 143.42L145.453 91.7899C145.653 90.3899 146.843 89.3599 148.253 89.3599H168.373C170.093 89.3599 171.413 90.8799 171.173 92.5799L164.253 141.39C162.963 151.35 168.123 156.7 177.173 156.7C187.693 156.7 195.253 149.32 196.543 139.54L203.393 91.7799C203.593 90.3899 204.783 89.3599 206.193 89.3599H226.323C228.013 89.3599 229.333 90.8699 229.103 92.5699Z" fill="#E8F1DF"/>
<path d="M330.353 124.93C332.463 154.55 307.873 179.95 278.193 178.99C269.823 178.72 262.523 176.68 256.893 173.28C253.633 171.32 249.433 173.44 248.893 177.2L244.773 206.17C244.413 208.69 242.253 210.57 239.703 210.57H224.223C221.103 210.57 218.703 207.81 219.143 204.72L234.773 94.3299C235.173 91.4799 237.623 89.3599 240.503 89.3599H257.493C259.423 89.3599 260.923 91.0499 260.693 92.9599C260.483 94.7399 262.513 95.9599 263.933 94.8799C270.053 90.2199 278.853 87.6999 288.983 87.6999C312.903 87.6999 328.733 102.25 330.353 124.93ZM303.733 131.61C303.733 118.51 294.873 109.84 281.413 109.84C266.473 109.84 256.133 119.62 255.583 133.27V134.75C254.843 148.22 264.623 156.89 278.093 156.89C293.593 156.88 303.733 146.74 303.733 131.61Z" fill="#E8F1DF"/>
<path d="M421.073 139.72H366.303C363.653 139.72 361.903 142.45 362.963 144.88C366.103 152.06 375.383 156.51 388.373 156.51C397.263 156.51 406.503 154.67 414.173 151.89C416.773 150.95 419.443 153.05 419.073 155.79L417.063 170.7C416.893 171.97 416.083 173.08 414.893 173.56C405.893 177.24 394.293 179.01 384.313 179.01C354.423 179.01 335.603 163.14 335.603 136.21C335.603 108.35 355.713 87.6898 384.683 87.6898C408.853 87.6898 425.823 102.45 426.013 124.04C426.163 127.59 425.673 131.92 424.643 136.8C424.293 138.5 422.803 139.72 421.073 139.72ZM396.003 122.38C398.773 122.38 400.623 119.36 399.213 116.98C396.653 112.67 391.093 110.01 383.953 110.01C376.873 110.01 371.223 112.35 367.583 116.33C365.473 118.64 367.233 122.37 370.353 122.37H396.003V122.38Z" fill="#E8F1DF"/>
<path d="M492.493 91.3299L489.863 109.49C489.623 111.17 488.083 112.33 486.393 112.14C484.743 111.95 483.263 111.87 482.213 111.87C465.053 111.87 458.043 124.97 455.463 141.94L450.863 174.68C450.643 176.22 449.323 177.37 447.773 177.37H428.243C426.343 177.37 424.883 175.69 425.153 173.81L436.633 92.0499C436.853 90.5099 438.173 89.3599 439.723 89.3599H456.993C458.703 89.3599 460.093 90.7299 460.113 92.4299C460.153 95.1099 463.343 96.5099 465.313 94.6999C470.313 90.0799 477.463 87.5099 485.523 87.5099C487.033 87.5099 488.503 87.6099 489.793 87.7799C491.543 88.0099 492.743 89.5999 492.493 91.3299Z" fill="#E8F1DF"/>
<path d="M593.703 124.94C595.813 154.56 571.213 179.96 541.533 178.99C533.173 178.72 525.873 176.68 520.243 173.28C516.983 171.32 512.783 173.44 512.243 177.2L508.123 206.18C507.763 208.7 505.613 210.56 503.073 210.56H487.573C484.453 210.56 482.063 207.8 482.493 204.72L498.113 94.3199C498.513 91.4699 500.963 89.3499 503.843 89.3499H520.693C522.703 89.3499 524.253 91.0999 524.013 93.0999C523.803 94.8299 525.783 96.0199 527.163 94.9599C533.293 90.2499 542.143 87.6898 552.323 87.6898C576.263 87.6998 592.093 102.25 593.703 124.94ZM567.093 131.61C567.093 118.51 558.233 109.84 544.773 109.84C529.833 109.84 519.493 119.62 518.943 133.27V134.75C518.203 148.22 527.983 156.89 541.453 156.89C556.943 156.88 567.093 146.74 567.093 131.61Z" fill="#36B1BF"/>
<path d="M717.343 122.75L709.963 174.81C709.753 176.28 708.503 177.37 707.013 177.37H687.203C685.393 177.37 684.003 175.77 684.253 173.97L690.963 127C692.813 114.64 688.013 110.02 679.713 110.02C667.533 110.02 660.523 118.32 658.863 129.39L652.403 174.8C652.193 176.27 650.943 177.36 649.453 177.36H629.623C627.813 177.36 626.423 175.76 626.673 173.97L638.203 91.9199C638.413 90.4499 639.663 89.3599 641.153 89.3599H659.763C661.333 89.3599 662.633 90.5799 662.733 92.1399C662.883 94.4599 665.493 95.6799 667.413 94.3699C673.653 90.0799 681.333 87.6999 689.483 87.6999C709.043 87.6999 720.303 100.98 717.343 122.75Z" fill="#36B1BF"/>
<path d="M609.833 89.3599H628.233C630.473 89.3599 632.193 91.3399 631.873 93.5499L620.543 174.2C620.283 176.02 618.733 177.37 616.903 177.37H598.503C596.263 177.37 594.543 175.39 594.863 173.18L606.193 92.5299C606.443 90.7099 607.993 89.3599 609.833 89.3599ZM605.523 68.8799C605.523 59.8399 613.083 53.0099 624.343 53.0099C633.563 53.0099 639.843 58.1799 639.843 65.7399C639.843 74.5899 632.093 81.4199 621.023 81.4199C611.793 81.4199 605.523 76.2599 605.523 68.8799Z" fill="#36B1BF"/>
<path d="M129.073 9.41986C128.753 8.52986 127.943 7.85987 127.093 7.39987C123.113 5.25987 118.693 4.00987 114.263 3.17987C109.543 3.17987 105.453 6.12986 102.933 6.00986C103.573 6.72986 105.313 3.88987 105.333 5.23987C105.363 7.64987 103.113 9.41987 101.683 10.5199C95.8027 15.0499 95.0827 22.8799 95.4827 28.7099C95.6427 31.0299 96.2428 33.5598 97.1928 35.9998C97.4828 36.0998 97.7728 36.1999 98.0528 36.2999C98.5228 36.4299 98.9627 36.5899 99.3827 36.7799C99.8027 36.8099 100.203 36.8699 100.593 36.9299C100.983 36.9499 101.363 36.9899 101.733 37.0399C102.293 36.9799 102.873 36.9398 103.483 36.9398C103.603 36.9398 103.723 36.9499 103.843 36.9499C104.433 36.8699 105.053 36.8199 105.723 36.8099C107.233 36.6699 109.323 38.5498 110.733 38.9698C113.673 39.8498 114.063 40.6299 117.083 41.3799C120.233 42.1699 126.783 42.3599 129.333 40.6599C132.253 38.7099 132.503 35.0599 131.453 32.0999C130.393 29.1399 128.313 26.4699 127.323 23.4899C126.633 21.4299 126.533 19.2799 126.873 17.1399C127.203 15.0799 128.443 13.4399 129.023 11.4599C129.193 10.8899 129.283 10.2799 129.153 9.69986C129.143 9.62986 129.113 9.51986 129.073 9.41986Z" fill="#FCB700"/>
<path d="M123.193 33.6299C123.013 31.8599 122.563 30.0599 122.093 28.3499C121.453 25.9999 120.793 23.5899 120.843 21.1299C120.883 18.7799 121.973 16.6399 121.823 14.2699C121.453 8.51987 116.213 5.11987 109.383 3.11987C110.323 6.13987 109.743 9.56985 106.663 12.4398C106.473 12.6098 106.333 12.7499 106.213 12.8699C106.073 14.0299 106.253 14.5899 106.423 15.5799C106.913 18.4799 107.823 21.6399 108.953 24.3399C109.923 26.6399 111.373 28.6399 112.213 31.0199C112.893 32.9499 112.743 34.9699 113.353 36.8799C113.593 37.6299 113.973 38.7599 114.743 40.1299C115.063 40.6899 116.813 41.3298 117.413 41.4698C118.553 41.7298 120.093 41.5999 121.093 40.8999C121.733 40.4599 122.163 39.7799 122.483 39.0699C123.253 37.3499 123.383 35.4999 123.193 33.6299Z" fill="#33B1BF"/>
<path d="M117.483 19.3299C118.503 16.1099 124.743 8.74986 121.543 5.57986C120.523 4.56986 119.053 4.17987 117.663 3.83987C109.783 1.92987 101.933 0.849863 93.9727 0.359863C93.3027 1.59986 92.3727 2.67986 91.1827 3.50986C90.8527 7.11986 88.8327 10.5399 85.1427 11.9099C85.3227 13.8899 85.0027 15.9298 84.1727 17.7198C86.1127 23.9298 89.8327 30.0999 93.2227 36.5999C99.4427 37.1599 105.703 38.1699 111.683 39.5599C113.753 40.0399 118.803 41.9599 118.743 38.2999C118.723 37.2899 118.293 36.3399 117.923 35.3999C115.923 30.2999 115.833 24.5299 117.483 19.3299Z" fill="#FB8802"/>
<path d="M61.5928 142.2C85.1928 142.2 94.4728 134.78 94.4728 123.64C94.4728 111.44 83.6028 109.32 75.3828 107.99L54.9628 105.07C19.9628 100.3 6.70277 82.2699 6.70277 57.8699C6.70277 20.7399 37.7328 0.0598609 83.0728 0.0598609C90.8928 0.0598609 101.083 -0.760154 107.933 3.66985C108.603 4.09985 109.253 4.60984 109.663 5.28984C110.433 6.56984 110.243 8.22984 109.633 9.59984C109.023 10.9698 108.073 12.1398 107.303 13.4198C104.853 17.4998 104.753 22.2898 106.483 26.6598C108.353 31.3898 112.023 34.8598 115.343 38.5998C115.473 38.7498 115.953 39.1498 116.453 39.6098C117.033 40.1298 116.553 41.0898 115.783 40.9398C104.593 38.6798 93.4728 36.1298 82.0028 36.1298C60.2528 36.1298 49.1228 42.4998 49.1228 53.6298C49.1228 65.0298 60.5228 66.6298 67.1528 67.4198L89.6928 70.8699C123.633 75.9099 136.893 94.4698 136.893 119.67C136.893 158.65 105.863 178.01 59.7228 178.01C40.8928 178.01 20.9628 174.68 6.71277 169.57C2.17277 167.94 -0.577235 163.3 0.102765 158.52L2.39277 142.38C3.31277 135.92 9.95277 131.97 16.0728 134.23C29.7528 139.26 46.2128 142.2 61.5928 142.2Z" fill="#E8F1DF"/>
</svg>
