<svg width="730" height="279" viewBox="0 0 730 279" fill="none" xmlns="http://www.w3.org/2000/svg">
<path d="M229.093 92.5799L217.523 174.94C217.323 176.33 216.133 177.37 214.723 177.37H195.713C194.203 177.37 192.953 176.18 192.893 174.67C192.793 172.38 190.203 171.21 188.353 172.56C182.423 176.85 174.573 179.04 166.263 179.04C146.523 179.04 135.083 165.94 138.223 143.43L145.443 91.7999C145.643 90.3999 146.833 89.3699 148.243 89.3699H168.363C170.083 89.3699 171.403 90.8899 171.163 92.5899L164.243 141.4C162.953 151.36 168.113 156.71 177.163 156.71C187.683 156.71 195.243 149.33 196.533 139.55L203.383 91.7899C203.583 90.3999 204.773 89.3699 206.183 89.3699H226.313C228.013 89.3599 229.333 90.8799 229.093 92.5799Z" fill="#0C4D8F"/>
<path d="M330.343 124.94C332.453 154.56 307.863 179.96 278.183 179C269.813 178.73 262.513 176.69 256.883 173.29C253.623 171.33 249.423 173.45 248.883 177.21L244.763 206.18C244.403 208.7 242.243 210.58 239.693 210.58H224.213C221.093 210.58 218.693 207.82 219.133 204.73L234.763 94.3399C235.163 91.4899 237.613 89.3699 240.493 89.3699H257.483C259.413 89.3699 260.913 91.0599 260.683 92.9699C260.473 94.7499 262.503 95.9699 263.923 94.8899C270.043 90.2299 278.843 87.7099 288.973 87.7099C312.903 87.6999 328.733 102.25 330.343 124.94ZM303.733 131.61C303.733 118.51 294.873 109.84 281.413 109.84C266.473 109.84 256.133 119.62 255.583 133.27V134.75C254.843 148.22 264.623 156.89 278.093 156.89C293.583 156.88 303.733 146.74 303.733 131.61Z" fill="#0C4D8F"/>
<path d="M421.063 139.73H366.303C363.653 139.73 361.903 142.46 362.963 144.89C366.103 152.07 375.383 156.52 388.373 156.52C397.263 156.52 406.503 154.68 414.173 151.9C416.773 150.96 419.443 153.06 419.073 155.8L417.063 170.71C416.893 171.98 416.083 173.09 414.893 173.57C405.893 177.25 394.293 179.02 384.313 179.02C354.423 179.02 335.603 163.15 335.603 136.22C335.603 108.36 355.713 87.6999 384.683 87.6999C408.853 87.6999 425.823 102.46 426.013 124.05C426.163 127.6 425.673 131.93 424.643 136.81C424.293 138.5 422.793 139.73 421.063 139.73ZM396.003 122.38C398.773 122.38 400.623 119.36 399.213 116.98C396.653 112.67 391.093 110.01 383.953 110.01C376.873 110.01 371.223 112.35 367.583 116.33C365.473 118.64 367.233 122.37 370.353 122.37H396.003V122.38Z" fill="#0C4D8F"/>
<path d="M492.483 91.3299L489.853 109.49C489.613 111.17 488.073 112.33 486.383 112.14C484.733 111.95 483.253 111.87 482.203 111.87C465.043 111.87 458.033 124.97 455.453 141.94L450.853 174.68C450.633 176.22 449.313 177.37 447.763 177.37H428.233C426.333 177.37 424.873 175.69 425.143 173.81L436.623 92.0499C436.843 90.5099 438.163 89.3599 439.713 89.3599H456.983C458.693 89.3599 460.083 90.7299 460.103 92.4299C460.143 95.1099 463.333 96.5099 465.303 94.6999C470.303 90.0799 477.453 87.5099 485.513 87.5099C487.023 87.5099 488.493 87.6099 489.783 87.7799C491.533 88.0099 492.743 89.5999 492.483 91.3299Z" fill="#0C4D8F"/>
<path d="M593.703 124.94C595.813 154.56 571.213 179.96 541.533 178.99C533.173 178.72 525.873 176.68 520.243 173.28C516.983 171.32 512.783 173.44 512.243 177.2L508.123 206.18C507.763 208.7 505.613 210.56 503.073 210.56H487.573C484.453 210.56 482.063 207.8 482.493 204.72L498.113 94.3199C498.513 91.4699 500.963 89.3499 503.843 89.3499H520.693C522.703 89.3499 524.253 91.0999 524.013 93.0999C523.803 94.8299 525.783 96.0199 527.163 94.9599C533.293 90.2499 542.143 87.6899 552.323 87.6899C576.253 87.6999 592.083 102.25 593.703 124.94ZM567.083 131.61C567.083 118.51 558.223 109.84 544.763 109.84C529.823 109.84 519.483 119.62 518.933 133.27V134.75C518.193 148.22 527.973 156.89 541.443 156.89C556.933 156.88 567.083 146.74 567.083 131.61Z" fill="#0C4D8F"/>
<path d="M717.343 122.75L709.963 174.81C709.753 176.28 708.503 177.37 707.013 177.37H687.193C685.383 177.37 683.993 175.77 684.243 173.97L690.953 127C692.803 114.64 688.003 110.02 679.703 110.02C667.523 110.02 660.513 118.32 658.853 129.39L652.393 174.8C652.183 176.27 650.933 177.36 649.443 177.36H629.613C627.803 177.36 626.413 175.76 626.663 173.97L638.193 91.9099C638.403 90.4399 639.653 89.3499 641.143 89.3499H659.753C661.323 89.3499 662.623 90.5699 662.723 92.1299C662.873 94.4499 665.483 95.6699 667.403 94.3599C673.643 90.0699 681.323 87.6899 689.473 87.6899C709.043 87.6999 720.293 100.98 717.343 122.75Z" fill="#0C4D8F"/>
<path d="M609.823 89.3599H628.223C630.463 89.3599 632.183 91.3399 631.863 93.5499L620.533 174.2C620.273 176.02 618.723 177.37 616.893 177.37H598.493C596.253 177.37 594.533 175.39 594.853 173.18L606.183 92.5299C606.433 90.7099 607.983 89.3599 609.823 89.3599ZM605.513 68.8799C605.513 59.8399 613.073 53.0099 624.333 53.0099C633.553 53.0099 639.833 58.1799 639.833 65.7399C639.833 74.5899 632.083 81.4199 621.013 81.4199C611.793 81.4199 605.513 76.2599 605.513 68.8799Z" fill="#0C4D8F"/>
<path d="M571.75 200.264C571.563 198.688 570.806 197.465 569.48 196.595C568.153 195.724 566.526 195.289 564.598 195.289C563.189 195.289 561.956 195.517 560.898 195.973C559.852 196.429 559.033 197.056 558.442 197.854C557.862 198.652 557.572 199.559 557.572 200.575C557.572 201.425 557.774 202.155 558.178 202.767C558.592 203.368 559.121 203.87 559.764 204.275C560.406 204.668 561.08 204.995 561.785 205.254C562.489 205.503 563.137 205.705 563.728 205.86L566.961 206.731C567.79 206.949 568.713 207.249 569.729 207.633C570.755 208.016 571.734 208.539 572.667 209.203C573.61 209.856 574.387 210.695 574.999 211.721C575.61 212.747 575.916 214.006 575.916 215.499C575.916 217.219 575.465 218.774 574.563 220.163C573.672 221.551 572.366 222.655 570.646 223.474C568.936 224.293 566.858 224.702 564.412 224.702C562.132 224.702 560.157 224.334 558.489 223.598C556.831 222.862 555.525 221.836 554.571 220.52C553.628 219.204 553.094 217.675 552.97 215.934H556.95C557.053 217.136 557.458 218.131 558.162 218.919C558.877 219.696 559.779 220.277 560.867 220.66C561.966 221.033 563.147 221.22 564.412 221.22C565.884 221.22 567.205 220.981 568.376 220.505C569.547 220.017 570.475 219.344 571.159 218.484C571.843 217.613 572.185 216.597 572.185 215.437C572.185 214.379 571.889 213.519 571.299 212.856C570.708 212.193 569.931 211.654 568.967 211.239C568.003 210.825 566.961 210.462 565.842 210.151L561.924 209.032C559.437 208.317 557.468 207.296 556.017 205.969C554.566 204.643 553.841 202.907 553.841 200.761C553.841 198.979 554.323 197.424 555.286 196.097C556.261 194.76 557.566 193.724 559.204 192.988C560.852 192.242 562.691 191.869 564.723 191.869C566.775 191.869 568.599 192.237 570.195 192.973C571.791 193.698 573.055 194.693 573.988 195.958C574.931 197.222 575.429 198.657 575.481 200.264H571.75ZM591.769 224.64C589.468 224.64 587.483 224.132 585.815 223.116C584.156 222.09 582.877 220.66 581.975 218.826C581.084 216.981 580.638 214.835 580.638 212.39C580.638 209.944 581.084 207.788 581.975 205.922C582.877 204.047 584.131 202.585 585.737 201.539C587.354 200.481 589.24 199.953 591.396 199.953C592.639 199.953 593.868 200.16 595.08 200.575C596.293 200.989 597.396 201.663 598.391 202.596C599.386 203.518 600.179 204.741 600.77 206.264C601.361 207.788 601.656 209.664 601.656 211.892V213.447H583.25V210.275H597.925C597.925 208.928 597.656 207.726 597.117 206.669C596.588 205.612 595.832 204.777 594.847 204.166C593.873 203.554 592.722 203.249 591.396 203.249C589.934 203.249 588.67 203.611 587.603 204.337C586.545 205.052 585.732 205.985 585.162 207.135C584.592 208.285 584.307 209.519 584.307 210.835V212.949C584.307 214.753 584.618 216.281 585.24 217.535C585.872 218.779 586.747 219.727 587.867 220.38C588.986 221.023 590.287 221.344 591.769 221.344C592.733 221.344 593.603 221.209 594.381 220.94C595.168 220.66 595.847 220.245 596.417 219.696C596.987 219.137 597.428 218.442 597.738 217.613L601.283 218.608C600.91 219.81 600.283 220.867 599.402 221.779C598.521 222.681 597.433 223.386 596.137 223.894C594.842 224.391 593.386 224.64 591.769 224.64ZM607.237 224.142V200.264H610.782V203.87H611.03C611.466 202.689 612.253 201.73 613.393 200.994C614.533 200.259 615.818 199.891 617.249 199.891C617.518 199.891 617.855 199.896 618.259 199.906C618.663 199.917 618.969 199.932 619.176 199.953V203.684C619.052 203.653 618.767 203.606 618.321 203.544C617.886 203.471 617.425 203.435 616.938 203.435C615.777 203.435 614.741 203.679 613.829 204.166C612.927 204.643 612.212 205.306 611.683 206.156C611.165 206.995 610.906 207.954 610.906 209.032V224.142H607.237ZM643.778 200.264L634.948 224.142H631.217L622.387 200.264H626.366L632.958 219.292H633.207L639.798 200.264H643.778ZM648.62 224.142V200.264H652.289V224.142H648.62ZM650.486 196.284C649.771 196.284 649.154 196.04 648.636 195.553C648.128 195.066 647.874 194.481 647.874 193.797C647.874 193.113 648.128 192.527 648.636 192.04C649.154 191.553 649.771 191.309 650.486 191.309C651.201 191.309 651.812 191.553 652.32 192.04C652.839 192.527 653.098 193.113 653.098 193.797C653.098 194.481 652.839 195.066 652.32 195.553C651.812 196.04 651.201 196.284 650.486 196.284ZM668.71 224.64C666.471 224.64 664.543 224.111 662.927 223.054C661.31 221.997 660.066 220.541 659.196 218.686C658.325 216.831 657.89 214.711 657.89 212.327C657.89 209.902 658.335 207.762 659.227 205.907C660.128 204.041 661.382 202.585 662.989 201.539C664.606 200.481 666.492 199.953 668.647 199.953C670.326 199.953 671.84 200.264 673.187 200.886C674.534 201.507 675.638 202.378 676.498 203.497C677.358 204.617 677.892 205.922 678.099 207.415H674.431C674.151 206.327 673.529 205.363 672.565 204.523C671.612 203.673 670.326 203.249 668.71 203.249C667.279 203.249 666.025 203.622 664.948 204.368C663.88 205.104 663.046 206.145 662.445 207.493C661.854 208.83 661.558 210.4 661.558 212.203C661.558 214.048 661.849 215.654 662.429 217.022C663.02 218.39 663.849 219.453 664.916 220.209C665.994 220.966 667.259 221.344 668.71 221.344C669.663 221.344 670.529 221.178 671.306 220.847C672.083 220.515 672.741 220.038 673.28 219.416C673.819 218.795 674.203 218.048 674.431 217.178H678.099C677.892 218.587 677.379 219.857 676.56 220.987C675.752 222.106 674.679 222.997 673.342 223.66C672.016 224.313 670.472 224.64 668.71 224.64ZM666.968 224.018H670.015L669.767 225.262C670.575 225.386 671.316 225.723 671.99 226.272C672.663 226.832 673 227.718 673 228.93C673 230.267 672.446 231.356 671.337 232.195C670.238 233.045 668.616 233.47 666.471 233.47L666.347 231.045C667.31 231.045 668.109 230.889 668.741 230.578C669.383 230.278 669.705 229.77 669.705 229.055C669.705 228.34 669.44 227.853 668.912 227.594C668.383 227.334 667.528 227.158 666.347 227.065L666.968 224.018ZM693.163 224.64C691.008 224.64 689.116 224.127 687.489 223.101C685.872 222.075 684.608 220.639 683.696 218.795C682.794 216.95 682.343 214.794 682.343 212.327C682.343 209.84 682.794 207.669 683.696 205.814C684.608 203.959 685.872 202.518 687.489 201.492C689.116 200.466 691.008 199.953 693.163 199.953C695.319 199.953 697.205 200.466 698.822 201.492C700.449 202.518 701.714 203.959 702.615 205.814C703.527 207.669 703.983 209.84 703.983 212.327C703.983 214.794 703.527 216.95 702.615 218.795C701.714 220.639 700.449 222.075 698.822 223.101C697.205 224.127 695.319 224.64 693.163 224.64ZM693.163 221.344C694.801 221.344 696.148 220.924 697.205 220.085C698.262 219.245 699.045 218.142 699.553 216.774C700.061 215.406 700.315 213.923 700.315 212.327C700.315 210.731 700.061 209.244 699.553 207.866C699.045 206.487 698.262 205.373 697.205 204.523C696.148 203.673 694.801 203.249 693.163 203.249C691.526 203.249 690.179 203.673 689.121 204.523C688.064 205.373 687.282 206.487 686.774 207.866C686.266 209.244 686.012 210.731 686.012 212.327C686.012 213.923 686.266 215.406 686.774 216.774C687.282 218.142 688.064 219.245 689.121 220.085C690.179 220.924 691.526 221.344 693.163 221.344ZM726.498 205.612L723.202 206.544C722.995 205.995 722.689 205.461 722.285 204.943C721.891 204.415 721.352 203.979 720.668 203.637C719.984 203.295 719.108 203.124 718.041 203.124C716.58 203.124 715.362 203.461 714.388 204.135C713.424 204.798 712.942 205.643 712.942 206.669C712.942 207.581 713.273 208.301 713.937 208.83C714.6 209.358 715.636 209.799 717.046 210.151L720.59 211.022C722.725 211.54 724.316 212.333 725.363 213.4C726.41 214.457 726.933 215.82 726.933 217.489C726.933 218.857 726.539 220.08 725.752 221.158C724.974 222.235 723.886 223.085 722.487 223.707C721.088 224.329 719.461 224.64 717.606 224.64C715.17 224.64 713.154 224.111 711.558 223.054C709.962 221.997 708.952 220.453 708.527 218.421L712.009 217.551C712.341 218.836 712.968 219.8 713.89 220.442C714.823 221.085 716.041 221.406 717.543 221.406C719.253 221.406 720.611 221.044 721.616 220.318C722.632 219.582 723.14 218.701 723.14 217.675C723.14 216.846 722.85 216.152 722.269 215.592C721.689 215.022 720.798 214.597 719.595 214.317L715.616 213.385C713.429 212.866 711.822 212.063 710.796 210.975C709.781 209.876 709.273 208.503 709.273 206.855C709.273 205.508 709.651 204.316 710.408 203.28C711.175 202.243 712.216 201.43 713.533 200.839C714.859 200.248 716.362 199.953 718.041 199.953C720.404 199.953 722.259 200.471 723.606 201.507C724.964 202.544 725.928 203.912 726.498 205.612Z" fill="#0C4D8F"/>
<path d="M533.342 261.12C531.041 261.12 529.057 260.612 527.388 259.596C525.73 258.57 524.45 257.14 523.548 255.306C522.657 253.461 522.211 251.316 522.211 248.87C522.211 246.424 522.657 244.268 523.548 242.402C524.45 240.527 525.704 239.065 527.31 238.019C528.927 236.961 530.813 236.433 532.969 236.433C534.213 236.433 535.441 236.64 536.653 237.055C537.866 237.469 538.97 238.143 539.965 239.076C540.96 239.998 541.753 241.221 542.343 242.744C542.934 244.268 543.229 246.144 543.229 248.372V249.927H524.823V246.755H539.498C539.498 245.408 539.229 244.206 538.69 243.149C538.161 242.092 537.405 241.257 536.42 240.646C535.446 240.034 534.296 239.729 532.969 239.729C531.508 239.729 530.243 240.091 529.176 240.817C528.119 241.532 527.305 242.465 526.735 243.615C526.165 244.765 525.88 245.999 525.88 247.315V249.429C525.88 251.233 526.191 252.761 526.813 254.015C527.445 255.259 528.321 256.207 529.44 256.86C530.559 257.503 531.86 257.824 533.342 257.824C534.306 257.824 535.177 257.689 535.954 257.42C536.742 257.14 537.42 256.725 537.99 256.176C538.56 255.617 539.001 254.922 539.312 254.093L542.856 255.088C542.483 256.29 541.856 257.347 540.975 258.259C540.094 259.161 539.006 259.866 537.711 260.374C536.415 260.871 534.959 261.12 533.342 261.12ZM561.123 269.577V236.744H564.667V240.537H565.103C565.372 240.122 565.745 239.594 566.222 238.951C566.709 238.298 567.403 237.718 568.305 237.21C569.217 236.692 570.45 236.433 572.005 236.433C574.016 236.433 575.788 236.935 577.322 237.941C578.856 238.946 580.053 240.371 580.913 242.216C581.773 244.061 582.203 246.237 582.203 248.745C582.203 251.274 581.773 253.466 580.913 255.321C580.053 257.166 578.861 258.596 577.337 259.612C575.814 260.617 574.057 261.12 572.067 261.12C570.533 261.12 569.305 260.866 568.383 260.358C567.46 259.84 566.75 259.254 566.253 258.601C565.755 257.938 565.372 257.389 565.103 256.954H564.792V269.577H561.123ZM564.729 248.683C564.729 250.486 564.994 252.077 565.522 253.456C566.051 254.824 566.823 255.896 567.839 256.674C568.854 257.441 570.098 257.824 571.57 257.824C573.104 257.824 574.383 257.42 575.41 256.611C576.446 255.793 577.223 254.694 577.741 253.316C578.27 251.927 578.534 250.383 578.534 248.683C578.534 247.004 578.275 245.491 577.757 244.144C577.249 242.786 576.477 241.713 575.441 240.926C574.415 240.128 573.124 239.729 571.57 239.729C570.077 239.729 568.823 240.107 567.808 240.863C566.792 241.61 566.025 242.656 565.507 244.004C564.989 245.341 564.729 246.9 564.729 248.683ZM587.8 260.622V236.744H591.468V260.622H587.8ZM589.665 232.764C588.95 232.764 588.333 232.52 587.815 232.033C587.307 231.546 587.053 230.961 587.053 230.277C587.053 229.593 587.307 229.007 587.815 228.52C588.333 228.033 588.95 227.789 589.665 227.789C590.38 227.789 590.992 228.033 591.5 228.52C592.018 229.007 592.277 229.593 592.277 230.277C592.277 230.961 592.018 231.546 591.5 232.033C590.992 232.52 590.38 232.764 589.665 232.764ZM601.857 246.258V260.622H598.188V236.744H601.733V240.475H602.044C602.603 239.262 603.453 238.288 604.593 237.552C605.733 236.806 607.205 236.433 609.008 236.433C610.625 236.433 612.04 236.764 613.252 237.428C614.465 238.081 615.408 239.076 616.082 240.413C616.755 241.739 617.092 243.418 617.092 245.449V260.622H613.423V245.698C613.423 243.822 612.936 242.361 611.962 241.314C610.988 240.257 609.651 239.729 607.951 239.729C606.78 239.729 605.733 239.983 604.811 240.49C603.899 240.998 603.178 241.739 602.65 242.713C602.121 243.688 601.857 244.869 601.857 246.258ZM634.181 236.744V239.853H621.806V236.744H634.181ZM625.413 231.023H629.082V253.782C629.082 254.819 629.232 255.596 629.533 256.114C629.844 256.622 630.238 256.964 630.714 257.14C631.201 257.306 631.714 257.389 632.253 257.389C632.657 257.389 632.989 257.368 633.248 257.327C633.507 257.275 633.715 257.233 633.87 257.202L634.616 260.498C634.368 260.591 634.02 260.685 633.575 260.778C633.129 260.881 632.564 260.933 631.88 260.933C630.844 260.933 629.828 260.71 628.833 260.265C627.849 259.819 627.03 259.14 626.377 258.228C625.734 257.316 625.413 256.166 625.413 254.777V231.023ZM654.748 250.859V236.744H658.417V260.622H654.748V256.58H654.5C653.94 257.793 653.069 258.824 651.888 259.674C650.706 260.514 649.214 260.933 647.411 260.933C645.918 260.933 644.592 260.607 643.431 259.954C642.27 259.291 641.358 258.296 640.695 256.969C640.031 255.632 639.7 253.948 639.7 251.917V236.744H643.369V251.668C643.369 253.409 643.856 254.798 644.83 255.834C645.815 256.871 647.069 257.389 648.592 257.389C649.504 257.389 650.432 257.156 651.375 256.689C652.328 256.223 653.126 255.508 653.769 254.544C654.422 253.58 654.748 252.352 654.748 250.859ZM665.137 260.622V236.744H668.681V240.35H668.93C669.365 239.169 670.153 238.21 671.293 237.474C672.433 236.739 673.718 236.371 675.148 236.371C675.418 236.371 675.755 236.376 676.159 236.386C676.563 236.397 676.869 236.412 677.076 236.433V240.164C676.952 240.133 676.667 240.086 676.221 240.024C675.786 239.951 675.325 239.915 674.838 239.915C673.677 239.915 672.64 240.159 671.728 240.646C670.827 241.123 670.112 241.786 669.583 242.636C669.065 243.475 668.806 244.434 668.806 245.512V260.622H665.137ZM688.452 261.182C686.939 261.182 685.566 260.897 684.332 260.327C683.099 259.747 682.12 258.912 681.394 257.824C680.669 256.725 680.306 255.399 680.306 253.844C680.306 252.476 680.575 251.367 681.114 250.517C681.653 249.657 682.373 248.984 683.275 248.497C684.177 248.009 685.172 247.647 686.26 247.408C687.359 247.16 688.462 246.963 689.571 246.818C691.022 246.631 692.198 246.491 693.1 246.398C694.012 246.294 694.675 246.123 695.09 245.885C695.515 245.646 695.727 245.232 695.727 244.641V244.517C695.727 242.983 695.308 241.791 694.468 240.941C693.639 240.091 692.38 239.666 690.691 239.666C688.939 239.666 687.566 240.05 686.571 240.817C685.576 241.584 684.876 242.402 684.472 243.273L680.99 242.029C681.612 240.578 682.441 239.449 683.477 238.64C684.524 237.822 685.664 237.252 686.897 236.93C688.141 236.599 689.364 236.433 690.566 236.433C691.333 236.433 692.214 236.526 693.209 236.713C694.214 236.889 695.183 237.257 696.116 237.816C697.059 238.376 697.842 239.221 698.464 240.35C699.085 241.48 699.396 242.993 699.396 244.89V260.622H695.727V257.389H695.541C695.292 257.907 694.878 258.461 694.297 259.052C693.717 259.643 692.945 260.146 691.981 260.56C691.017 260.975 689.841 261.182 688.452 261.182ZM689.012 257.886C690.463 257.886 691.685 257.601 692.68 257.031C693.686 256.461 694.442 255.725 694.95 254.824C695.468 253.922 695.727 252.974 695.727 251.979V248.621C695.572 248.807 695.23 248.978 694.701 249.134C694.183 249.279 693.582 249.409 692.898 249.523C692.224 249.626 691.566 249.719 690.924 249.802C690.292 249.875 689.778 249.937 689.385 249.989C688.431 250.113 687.54 250.315 686.711 250.595C685.892 250.865 685.229 251.274 684.721 251.823C684.223 252.362 683.975 253.098 683.975 254.031C683.975 255.306 684.446 256.269 685.389 256.922C686.343 257.565 687.55 257.886 689.012 257.886ZM723.007 242.092L719.711 243.024C719.504 242.475 719.198 241.941 718.794 241.423C718.4 240.895 717.861 240.459 717.177 240.117C716.493 239.775 715.617 239.604 714.55 239.604C713.088 239.604 711.871 239.941 710.896 240.615C709.933 241.278 709.451 242.123 709.451 243.149C709.451 244.061 709.782 244.781 710.446 245.31C711.109 245.838 712.145 246.279 713.555 246.631L717.099 247.502C719.234 248.02 720.825 248.813 721.872 249.88C722.919 250.937 723.442 252.3 723.442 253.969C723.442 255.337 723.048 256.56 722.26 257.638C721.483 258.715 720.395 259.565 718.996 260.187C717.597 260.809 715.97 261.12 714.114 261.12C711.679 261.12 709.663 260.591 708.067 259.534C706.471 258.477 705.46 256.933 705.036 254.901L708.518 254.031C708.849 255.316 709.477 256.28 710.399 256.922C711.332 257.565 712.549 257.886 714.052 257.886C715.762 257.886 717.12 257.524 718.125 256.798C719.141 256.062 719.649 255.181 719.649 254.155C719.649 253.326 719.359 252.632 718.778 252.072C718.198 251.502 717.306 251.077 716.104 250.797L712.125 249.865C709.938 249.346 708.331 248.543 707.305 247.455C706.29 246.356 705.782 244.983 705.782 243.335C705.782 241.988 706.16 240.796 706.917 239.76C707.684 238.723 708.725 237.91 710.041 237.319C711.368 236.728 712.871 236.433 714.55 236.433C716.913 236.433 718.768 236.951 720.115 237.987C721.473 239.024 722.437 240.392 723.007 242.092Z" fill="#0C4D8F"/>
<path d="M129.063 9.42988C128.743 8.53988 127.933 7.86988 127.083 7.40988C123.103 5.26988 118.683 4.01988 114.253 3.18988C109.533 3.18988 105.443 6.13987 102.923 6.01987C103.563 6.73987 105.303 3.89988 105.323 5.24988C105.353 7.65988 103.103 9.42988 101.673 10.5299C95.7927 15.0599 95.0727 22.8899 95.4727 28.7199C95.6327 31.0399 96.2327 33.5699 97.1827 36.0099C97.4727 36.1099 97.7627 36.2099 98.0427 36.3099C98.5127 36.4399 98.9527 36.5999 99.3727 36.7899C99.7927 36.8199 100.193 36.8799 100.583 36.9399C100.973 36.9599 101.353 36.9999 101.723 37.0499C102.283 36.9899 102.863 36.9499 103.473 36.9499C103.593 36.9499 103.713 36.9599 103.833 36.9599C104.423 36.8799 105.043 36.8299 105.713 36.8199C107.223 36.6799 109.313 38.5599 110.723 38.9799C113.663 39.8599 114.053 40.6399 117.073 41.3899C120.223 42.1799 126.773 42.3699 129.323 40.6699C132.243 38.7199 132.493 35.0699 131.443 32.1099C130.393 29.1499 128.303 26.4799 127.313 23.4999C126.623 21.4399 126.523 19.2899 126.863 17.1499C127.193 15.0899 128.433 13.4499 129.013 11.4699C129.183 10.8999 129.273 10.2899 129.143 9.70988C129.133 9.62988 129.103 9.52988 129.063 9.42988Z" fill="#FCB700"/>
<path d="M123.193 33.6299C123.013 31.8599 122.563 30.0599 122.093 28.3499C121.453 25.9999 120.793 23.5899 120.843 21.1299C120.883 18.7799 121.973 16.6399 121.823 14.2699C121.453 8.51987 116.213 5.11987 109.383 3.11987C110.323 6.13987 109.743 9.56987 106.663 12.4399C106.473 12.6099 106.333 12.7499 106.213 12.8699C106.073 14.0299 106.253 14.5899 106.423 15.5799C106.913 18.4799 107.823 21.6399 108.953 24.3399C109.923 26.6399 111.373 28.6399 112.213 31.0199C112.893 32.9499 112.743 34.9699 113.353 36.8799C113.593 37.6299 113.973 38.7599 114.743 40.1299C115.063 40.6899 116.813 41.3299 117.413 41.4699C118.553 41.7299 120.093 41.5999 121.093 40.8999C121.733 40.4599 122.163 39.7799 122.483 39.0699C123.243 37.3599 123.373 35.4999 123.193 33.6299Z" fill="#33B1BF"/>
<path d="M117.473 19.3299C118.493 16.1099 124.733 8.74986 121.533 5.57986C120.513 4.56986 119.043 4.17986 117.653 3.83986C109.773 1.92986 101.923 0.849863 93.9628 0.359863C93.2928 1.59986 92.3629 2.67986 91.1729 3.50986C90.8429 7.11986 88.8228 10.5399 85.1328 11.9099C85.3128 13.8899 84.9928 15.9299 84.1628 17.7199C86.1028 23.9299 89.8228 30.0999 93.2128 36.5999C99.4328 37.1599 105.693 38.1699 111.673 39.5599C113.743 40.0399 118.793 41.9599 118.733 38.2999C118.713 37.2899 118.283 36.3399 117.913 35.3999C115.923 30.2999 115.823 24.5299 117.473 19.3299Z" fill="#FB8802"/>
<path d="M61.5928 142.2C85.1928 142.2 94.4728 134.78 94.4728 123.64C94.4728 111.44 83.6028 109.32 75.3828 107.99L54.9628 105.07C19.9628 100.3 6.70277 82.2699 6.70277 57.8699C6.70277 20.7399 37.7328 0.0598581 83.0728 0.0598581C90.8928 0.0598581 101.083 -0.760141 107.933 3.66986C108.603 4.09986 109.253 4.60986 109.663 5.28986C110.433 6.56986 110.243 8.22986 109.633 9.59986C109.033 10.9699 108.073 12.1399 107.303 13.4199C104.853 17.4999 104.753 22.2899 106.483 26.6599C108.353 31.3899 112.023 34.8599 115.343 38.5999C115.473 38.7499 115.953 39.1499 116.453 39.6099C117.033 40.1299 116.553 41.0899 115.783 40.9399C104.593 38.6799 93.4728 36.1299 82.0028 36.1299C60.2528 36.1299 49.1228 42.4999 49.1228 53.6299C49.1228 65.0299 60.5228 66.6299 67.1528 67.4199L89.6928 70.8699C123.633 75.9099 136.893 94.4699 136.893 119.67C136.893 158.65 105.863 178.01 59.7228 178.01C40.8928 178.01 20.9628 174.68 6.71277 169.57C2.17277 167.94 -0.577235 163.3 0.102765 158.52L2.39276 142.38C3.31276 135.92 9.95277 131.97 16.0728 134.23C29.7428 139.26 46.2028 142.2 61.5928 142.2Z" fill="#0C4D8F"/>
</svg>
